<svg id="Logotext" xmlns="http://www.w3.org/2000/svg" viewBox="0 0 219.76 168.53"><defs><style>.cls-1,.cls-4{fill:#333;}.cls-1,.cls-2,.cls-3{fill-rule:evenodd;}.cls-2{fill:#f1c40f;}.cls-3{fill:#f1892d;}</style></defs><title>logo-wikidragon</title><path class="cls-1" d="M11.38,134.2h197c-26.25-3-60.73-4.82-98.5-4.82S37.63,131.21,11.38,134.2Z"/><path class="cls-1" d="M193,33.42s1.52-6.06-6.53-10-19.36-7-22.67-20.21c0,0-5.4,11,4.07,21.77-21.94,3.83-9.95,37.45-29,43.08,0,0-16-25.56,9.18-35.6-9.28-10-46.1-30.11-96.85-12,0,0,40.14,2.27,34.27,30.29,0,0,18.09.57,21.59,13.45-40.5-2.57-68.11,43.2-95.66,18.08,12.45,27.12,40.84,12,55.33,14.81,0,0-1.8,3.22-7.86,3.51l-7.39,21.68,6.5,9.46H76.31c-.57-1.9-3-8-11.31-9.27l4.83-8.71s9,1.61,15.62-.19a15.3,15.3,0,0,1-1.89,6.34l13.66,11.83h17.83c-.48-1.47-3.16-8.11-13.17-8.61l-2.13-5.78a34,34,0,0,0,7.29-6.72,18.55,18.55,0,0,1-4.4-4.4,34.65,34.65,0,0,0,15.57,4.64l8.84,20.87h19.8c-.83-1.62-4.52-7.9-11.93-8.85l-1.33-10.51,3.6-.8,12,20.16H169c-.89-2.07-4.24-8-13.74-9.27l-2.75-12.22c33-16,13-49,21.3-64.8,3.91,5.18,18.21,1.72,22.21,3.32,2,.81,1,5.26-.11,6.4,6.75-1.73,12.39-9.49,12.5-16.82A22.52,22.52,0,0,1,193,33.42Z"/><path class="cls-2" d="M184,26.22c-7-3.36-13.78-6.39-16.9-10a25.73,25.73,0,0,0,9.14,10.27c-28.5-1.32-16.1,34.56-33.47,43.93,0,0,5.39,0,10.41-6.34,0,0-3.26,14.48-28,11.65S99,71.9,90.8,72.9a53,53,0,0,1,15.62-4.55c-32.08-4.07-52.69,30.26-83,23.48C40,100.1,60.1,86.44,71.16,86c0,0,.76-4.17,6-8.52C71.21,89.27,82.27,105.52,61.88,104l-5.82,14.91,8-10.56s13.26,1.23,18.56-4.21a11.77,11.77,0,0,1-7.15,5.3c10.76-.93,20-10.65,14.39-22a7.73,7.73,0,0,1,4.5,6s7.53-3.55,20-2.08c0,0-3.88,0-11.41,2.51,0,0,9.66-1,18.32,1.42a22.21,22.21,0,0,0,2.13-9.75s3.79,14.67-1.42,24l5.49,12.78.09-13.63s15.91-5.59,21.78-18.27c0,0-2.65,10.31-8.71,14.86,0,0,13.82-6.34,16.28-24.9s-1.7-31.62,5.87-39.95a28,28,0,0,0-1.89,10.89C165.4,28.72,177,40.56,184.67,40.94a18.36,18.36,0,0,1-7.15.38c5.31,5,20.43-1.63,25.75,3.69a15.16,15.16,0,0,0,1.47-3.4A27.91,27.91,0,0,1,190,34.69S191,29.58,184,26.22ZM181,32.58c2.17-.21,5.47-.73,5.68,2.21C186.63,34.79,184.5,35.43,181,32.58Z"/><path class="cls-3" d="M120,89.44a90.22,90.22,0,0,0-20.69-4.12,60.09,60.09,0,0,1,7-1A89.55,89.55,0,0,0,87.49,84c4.21,11-2.75,16.62-2.75,16.62a21.66,21.66,0,0,0-.14-4.83C79.44,109.13,63,106,63,106l-6.95,12.9,8-10.56s13.26,1.23,18.56-4.21a11.77,11.77,0,0,1-7.15,5.3c10.95-1.07,20-10.65,14.39-22,2,1.64,3.53,2.3,4.5,6,0,0,7.53-3.55,20-2.08,0,0-3.88,0-11.41,2.51,0,0,9.66-1,18.32,1.42a22.21,22.21,0,0,0,2.13-9.75A8.66,8.66,0,0,1,120,89.44Z"/><path class="cls-3" d="M196.08,41c-6.53-.48-11.5-.85-17.52-3.13s-10.22-2.27-12.92-.56a10.71,10.71,0,0,1,4.21-3.79C149,36.16,160.36,68,150.92,85.15a30,30,0,0,0-.61-8.71s-3.42,22.44-24.72,31.34l1.9,14.39.09-13.63s15.91-5.59,21.78-18.27c0,0-2.65,10.31-8.71,14.86,0,0,13.82-6.34,16.28-24.9s-1.7-31.62,5.87-39.95a28,28,0,0,0-1.89,10.89C165.4,28.72,177,40.56,184.67,40.94a18.36,18.36,0,0,1-7.15.38c5.31,5,20.43-1.63,25.75,3.69C203.27,45,202.61,41.46,196.08,41Z"/><path class="cls-2" d="M65.43,19.71c17.46-3.64,51.5-.27,63.62,12.69-7.1,9.08-3.88,26-3.88,26a31,31,0,0,1,2.46-12C126.49,55.92,134,65.72,134,65.72c-9.28-18.55.43-33.47,3.79-35.22C105.85,8.16,65.43,19.71,65.43,19.71Z"/><path class="cls-4" d="M33.37,147H35L40,162l5.13-15h2.13l-6.41,18.07H39.09l-4.92-14.56-5,14.56H27.53L21.12,147h2.2l5.13,15Z"/><path class="cls-4" d="M53.09,147v18h-2V147Z"/><path class="cls-4" d="M73.62,165H71.08l-6.89-8.7-3.82,3.88V165h-2V147h2v10.72L70.67,147h2.62l-7.69,7.84Z"/><path class="cls-4" d="M79,147v18H77V147Z"/><path class="cls-4" d="M83.28,147h6.93c6.4,0,10.12,3.69,10.12,8.87v.05c0,5.18-3.77,9-10.23,9H83.28Zm7,13.54c3,0,5-1.64,5-4.54v0c0-2.87-2-4.54-5-4.54h-2v9.13Z"/><path class="cls-4" d="M102.89,147h8.49c2.74,0,4.64.72,5.84,2a5.56,5.56,0,0,1,1.59,4.18v.05a5.68,5.68,0,0,1-3.69,5.51L119.4,165h-5.74l-3.61-5.44h-2.18V165h-5Zm8.26,8.61c1.69,0,2.67-.82,2.67-2.12v-.05c0-1.41-1-2.13-2.7-2.13h-3.25v4.3Z"/><path class="cls-4" d="M127.22,146.88H132L139.65,165h-5.33l-1.3-3.21h-6.93L124.81,165h-5.23Zm4.36,11-2-5.1-2,5.1Z"/><path class="cls-4" d="M139.63,156V156a9.31,9.31,0,0,1,9.66-9.33,10.45,10.45,0,0,1,7.28,2.62l-2.92,3.51a6.3,6.3,0,0,0-4.33-1.69,4.71,4.71,0,0,0-4.59,4.92v.05a4.74,4.74,0,0,0,4.87,5,5,5,0,0,0,2.87-.74v-2.18h-3.53v-3.64h8.25v8.07a12.11,12.11,0,0,1-7.79,2.77C143.81,165.31,139.63,161.47,139.63,156Z"/><path class="cls-4" d="M159.34,156V156a9.67,9.67,0,0,1,19.33,0v0a9.67,9.67,0,0,1-19.33.05Zm14.26,0V156a4.67,4.67,0,0,0-4.62-4.84,4.57,4.57,0,0,0-4.54,4.79v0a4.67,4.67,0,0,0,4.59,4.85A4.58,4.58,0,0,0,173.6,156Z"/><path class="cls-4" d="M181.26,147h4.64l7.38,9.49V147h4.93v18h-4.36l-7.67-9.85V165h-4.92Z"/></svg>